# xmcd CD database file
#
# Track frame offsets:
#	150
#	14522
#	29905
#	51362
#	69735
#	93265
#	106870
#	128350
#	153077
#	165900
#	181902
#	198207
#	217155
#	235297
#	252150
#	272250
#	286622
#	303785
#
# Disc length: 4242 seconds
#
# Revision: 2
# Processed by: cddbd v1.4PL0 Copyright (c) Steve Scherf et al.
# Submitted via: CDex 1.40Release
#
DISCID=e8109012
DTITLE=John Denver - Behind The Music - The John Denver Collection
DYEAR=2000
DGENRE=Folk-Rock
TTITLE0=Take Me Home, Country Roads
TTITLE1=Friends With You
TTITLE2=Rocky Mountain High
TTITLE3=Farewell Andromeda (Welcome To My Morning)
TTITLE4=Sunshine On My Shoulders
TTITLE5=Annie's Song
TTITLE6=Back Home Again
TTITLE7=Sweet Surrender
TTITLE8=Thank God I'm A Country Boy (Live)
TTITLE9=I'm Sorry
TTITLE10=Calypso
TTITLE11=Fly Away
TTITLE12=Looking For Space
TTITLE13=Like A Sad Song
TTITLE14=My Sweet Lady
TTITLE15=How Can I Leave You Again
TTITLE16=I Want To Live
TTITLE17=Shanghai Breezes
EXTD=\n YEAR: 2000 ID3G: 81
EXTT0=
EXTT1=
EXTT2=
EXTT3=
EXTT4=
EXTT5=
EXTT6=
EXTT7=
EXTT8=
EXTT9=
EXTT10=
EXTT11=
EXTT12=
EXTT13=
EXTT14=
EXTT15=
EXTT16=
EXTT17=
PLAYORDER=
